<?xml version="1.0" ?><!DOCTYPE svg  PUBLIC '-//W3C//DTD SVG 1.1//EN'  'http://www.w3.org/Graphics/SVG/1.1/DTD/svg11.dtd'><svg enable-background="new 0 0 512 512" height="512px" version="1.1" viewBox="0 0 512 512" width="512px" xml:space="preserve" xmlns="http://www.w3.org/2000/svg" xmlns:xlink="http://www.w3.org/1999/xlink"><g id="Layer_3"><g id="Layer_3_2_"><path d="M374.487,220.288c-44.372-43.636-47.649-112.374-9.847-159.726c-15.683,5.873-30.389,15.018-43.023,27.443    c-47.92,47.124-47.92,123.527,0,170.651c47.921,47.124,125.615,47.124,173.535,0c3.548-3.488,6.825-7.14,9.848-10.925    C461.201,264.133,409.773,254.987,374.487,220.288z" fill="#E8F3F9"/><g><g><path d="M424.291,83.093c-0.74-2.611-4.319-2.96-5.204,0c-0.816,2.732-1.787,4.882-4.595,7.686      c-2.807,2.806-7.931,5.173-9.315,5.173c-2.654,0-2.171,5.138,0,5.204c2.17,0.066,5.787,0.771,8.462,3.446      c2.677,2.677,4.988,7.273,5.442,9.005c0.455,1.734,4.065,2.071,4.755-0.458c0.689-2.531,3.078-5.949,5.675-8.547      c2.596-2.596,6.309-4.371,7.659-4.274c1.352,0.098,3.209-4.325,0-5.204c-3.209-0.878-6.018-1.337-8.001-3.32      C427.187,89.82,425.193,86.273,424.291,83.093z" fill="#E8F3F9"/></g><g><path d="M468.267,116.411c-0.508-1.79-2.961-2.03-3.568,0c-0.56,1.873-1.226,3.348-3.15,5.271      c-1.925,1.924-5.438,3.547-6.388,3.547c-1.819,0-1.488,3.523,0,3.569s3.968,0.529,5.802,2.363      c1.835,1.835,3.421,4.987,3.731,6.174c0.313,1.188,2.787,1.42,3.261-0.315c0.473-1.735,2.11-4.079,3.891-5.86      c1.781-1.78,4.326-2.998,5.253-2.931c0.927,0.067,2.199-2.965,0-3.568c-2.2-0.602-4.126-0.917-5.486-2.277      C470.252,121.023,468.886,118.591,468.267,116.411z" fill="#E8F3F9"/></g></g><g><g><path d="M411.15,85.016c1.116,2.027,2.444,3.873,3.825,5.253c1.162,1.162,2.443,1.982,3.76,2.601      c-1.287,0.867-2.472,1.835-3.42,2.783c-1.442,1.444-3.047,3.337-4.39,5.383c-1.137-1.911-2.536-3.854-4.065-5.384      c-1.215-1.214-2.529-2.135-3.838-2.832c1.816-1.109,3.495-2.379,4.69-3.574C409.19,87.769,410.293,86.382,411.15,85.016       M411.153,75.758c-1.063,0-2.125,0.658-2.553,2.091c-0.816,2.732-1.788,4.883-4.595,7.686c-2.807,2.806-7.931,5.174-9.315,5.174      c-2.653,0-2.171,5.137,0,5.204c2.17,0.066,5.787,0.771,8.462,3.446c2.677,2.677,4.988,7.273,5.442,9.005      c0.225,0.854,1.215,1.37,2.244,1.37c1.061,0,2.161-0.545,2.511-1.828c0.689-2.531,3.078-5.949,5.675-8.547      c2.527-2.528,6.117-4.278,7.549-4.278c0.038,0,0.075,0.001,0.109,0.004c0.016,0.001,0.03,0.001,0.044,0.001      c1.348,0,3.132-4.337-0.044-5.206c-3.208-0.878-6.017-1.337-8.001-3.321c-1.982-1.983-3.976-5.53-4.878-8.71      C413.423,76.503,412.286,75.758,411.153,75.758L411.153,75.758z" fill="#9B64E2"/></g><g><path d="M455.851,118.986c0.501,0.693,1.028,1.324,1.566,1.862c0.28,0.28,0.567,0.536,0.861,0.769      c-0.222,0.198-0.431,0.396-0.628,0.593c-0.358,0.358-1.024,1.055-1.776,1.979c-0.521-0.704-1.088-1.378-1.689-1.979      c-0.284-0.284-0.575-0.547-0.87-0.792c0.541-0.421,1.033-0.85,1.453-1.27C455.163,119.752,455.522,119.365,455.851,118.986       M455.962,109.734c-0.729,0-1.456,0.45-1.751,1.434c-0.559,1.873-1.225,3.347-3.149,5.27c-1.925,1.924-5.438,3.547-6.388,3.547      c-1.819,0-1.488,3.523,0,3.569c1.488,0.045,3.968,0.528,5.802,2.362c1.835,1.835,3.42,4.987,3.731,6.174      c0.153,0.586,0.833,0.939,1.54,0.939c0.727,0,1.48-0.374,1.721-1.253c0.473-1.736,2.11-4.079,3.891-5.86      c1.734-1.734,4.194-2.934,5.177-2.934c0.026,0,0.052,0.001,0.075,0.002c0.011,0.001,0.021,0.001,0.031,0.001      c0.924,0,2.146-2.974-0.031-3.569c-2.2-0.602-4.125-0.917-5.485-2.277c-1.36-1.36-2.727-3.792-3.345-5.972      C457.519,110.244,456.739,109.734,455.962,109.734L455.962,109.734z" fill="#9B64E2"/></g></g></g><path d="   M357.001,198.801c-44.373-43.636-47.65-112.374-9.848-159.726c-15.683,5.874-30.389,15.018-43.022,27.444   c-17.916,17.618-29.132,39.329-33.651,62.072c38.605,15.967,65.872,53.797,66.359,98.059c2.439-0.253,4.916-0.386,7.422-0.386   c29.972,0,55.607,18.511,66.142,44.716c24.625-3.878,48.281-15.143,67.264-33.81c3.547-3.488,6.824-7.14,9.847-10.926   C443.714,242.646,392.286,233.5,357.001,198.801z" fill="none" stroke="#9B64E2" stroke-linecap="round" stroke-linejoin="round" stroke-miterlimit="10" stroke-width="10"/></g><g id="Layer_1"><g id="Layer_3_3_"><path d="M363.776,245.781c-2.506,0-4.982,0.131-7.422,0.385c-0.646-58.746-48.461-106.172-107.359-106.172    c-45.357,0-84.145,28.123-99.88,67.88c-7.067-1.749-14.458-2.684-22.067-2.684c-50.574,0-91.572,41-91.572,91.574    c0,50.305,40.564,91.131,90.767,91.563v0.008h237.535c39.363,0,71.277-31.912,71.277-71.277    C435.054,277.693,403.142,245.781,363.776,245.781z" fill="#E8F3F9"/><path d="M344.261,226.264    c-2.506,0-4.982,0.133-7.422,0.386c-0.646-58.746-48.463-106.172-107.36-106.172c-45.356,0-84.145,28.123-99.879,67.881    c-7.067-1.749-14.458-2.683-22.067-2.683c-50.574,0-91.572,40.999-91.572,91.572c0,50.302,40.563,91.13,90.767,91.562v0.01    h237.536c39.363,0,71.275-31.912,71.275-71.279C415.538,258.178,383.624,226.264,344.261,226.264z" fill="none" stroke="#65BAE0" stroke-linejoin="round" stroke-miterlimit="10" stroke-width="10"/></g><polygon fill="#65BAE0" points="   315.638,296.526 259.101,386.845 296.245,377.513 263.284,456.894 332.2,355.964 298.093,359.917  " stroke="#65BAE0" stroke-linecap="round" stroke-linejoin="round" stroke-miterlimit="10" stroke-width="10"/><path d="   M182.959,422.849c2.273-6.854,21.363-23.375,21.363-23.375s5.435,24.654,3.162,31.508c-2.273,6.855-9.606,10.59-16.379,8.344   C184.333,437.079,180.685,429.702,182.959,422.849z" fill="none" stroke="#65BAE0" stroke-linecap="round" stroke-linejoin="round" stroke-miterlimit="10" stroke-width="10"/><path d="   M84.988,414.284c2.273-6.854,21.363-23.375,21.363-23.375s5.435,24.654,3.162,31.51c-2.272,6.854-9.605,10.588-16.378,8.342   C86.362,428.515,82.715,421.138,84.988,414.284z" fill="none" stroke="#65BAE0" stroke-linecap="round" stroke-linejoin="round" stroke-miterlimit="10" stroke-width="10"/><path d="   M127.304,469.786c2.273-6.854,21.363-23.375,21.363-23.375s5.435,24.654,3.162,31.508c-2.272,6.855-9.605,10.59-16.378,8.344   C128.678,484.017,125.031,476.64,127.304,469.786z" fill="none" stroke="#65BAE0" stroke-linecap="round" stroke-linejoin="round" stroke-miterlimit="10" stroke-width="10"/></g></svg>